<svg width="800" height="400" viewBox="0 0 800 400" xmlns="http://www.w3.org/2000/svg"><defs><pattern id="satori_pattern_id_0" x="0" y="0" width="1" height="1" patternUnits="objectBoundingBox"><linearGradient id="satori_biid_0" x1="0" y1="0" x2="0" y2="1"><stop offset="0%" stop-color="#155e75"/><stop offset="100%" stop-color="#0891b2"/></linearGradient><rect x="0" y="0" width="800" height="400" fill="url(#satori_biid_0)"/></pattern></defs><mask id="satori_om-id"><rect x="0" y="0" width="800" height="400" fill="#fff"/></mask><rect x="0" y="0" width="800" height="400" fill="url(#satori_pattern_id_0)"/><clipPath id="satori_bct-id-0"><path d="M155.3 187.4L175.0 187.4L175.0 194.3L155.3 194.3L155.3 187.4ZM159.8 211.3L159.8 179.6L168.9 179.6L168.9 210.1Q168.9 211.4 169.3 212.1Q169.6 212.7 170.3 213.0Q171.0 213.3 171.9 213.3L171.9 213.3Q172.6 213.3 173.2 213.2Q173.9 213.1 174.2 213.0L174.2 213.0L175.6 219.8Q174.9 220.0 173.7 220.3Q172.5 220.5 170.7 220.6L170.7 220.6Q167.4 220.7 165.0 219.7Q162.5 218.7 161.1 216.6Q159.8 214.5 159.8 211.3L159.8 211.3ZM193.5 220.8L193.5 220.8Q188.5 220.8 184.8 218.7Q181.2 216.7 179.2 212.9Q177.3 209.1 177.3 203.9L177.3 203.9Q177.3 198.9 179.2 195.1Q181.2 191.3 184.8 189.1Q188.3 187.0 193.1 187.0L193.1 187.0Q196.4 187.0 199.2 188.0Q202.0 189.1 204.1 191.1Q206.2 193.2 207.4 196.3Q208.5 199.5 208.5 203.6L208.5 203.6L208.5 206.1L180.9 206.1L180.9 200.5L200.0 200.5Q200.0 198.5 199.1 197.0Q198.3 195.5 196.8 194.6Q195.3 193.8 193.3 193.8L193.3 193.8Q191.2 193.8 189.6 194.7Q188.1 195.7 187.2 197.3Q186.3 198.9 186.2 200.8L186.2 200.8L186.2 206.1Q186.2 208.6 187.1 210.3Q188.1 212.1 189.7 213.1Q191.4 214.0 193.7 214.0L193.7 214.0Q195.2 214.0 196.4 213.6Q197.7 213.2 198.6 212.3Q199.5 211.5 199.9 210.2L199.9 210.2L208.3 210.8Q207.7 213.8 205.7 216.1Q203.8 218.3 200.7 219.6Q197.6 220.8 193.5 220.8ZM239.7 196.8L239.7 196.8L231.4 197.3Q231.2 196.2 230.5 195.3Q229.8 194.5 228.6 194.0Q227.5 193.4 225.9 193.4L225.9 193.4Q223.8 193.4 222.3 194.3Q220.9 195.2 220.9 196.7L220.9 196.7Q220.9 197.9 221.8 198.7Q222.8 199.5 225.0 200.0L225.0 200.0L231.0 201.2Q235.7 202.1 238.1 204.3Q240.4 206.5 240.4 210.0L240.4 210.0Q240.4 213.2 238.5 215.7Q236.7 218.1 233.4 219.4Q230.1 220.8 225.9 220.8L225.9 220.8Q219.4 220.8 215.5 218.1Q211.7 215.4 211.0 210.7L211.0 210.7L219.9 210.2Q220.3 212.2 221.9 213.2Q223.4 214.3 225.9 214.3L225.9 214.3Q228.3 214.3 229.7 213.3Q231.2 212.4 231.2 210.9L231.2 210.9Q231.2 209.7 230.2 208.9Q229.1 208.1 227.0 207.7L227.0 207.7L221.3 206.5Q216.5 205.6 214.2 203.2Q211.9 200.9 211.9 197.2L211.9 197.2Q211.9 194.0 213.6 191.8Q215.3 189.5 218.4 188.2Q221.5 187.0 225.7 187.0L225.7 187.0Q231.9 187.0 235.5 189.6Q239.1 192.2 239.7 196.8ZM241.9 187.4L261.6 187.4L261.6 194.3L241.9 194.3L241.9 187.4ZM246.3 211.3L246.3 179.6L255.4 179.6L255.4 210.1Q255.4 211.4 255.8 212.1Q256.2 212.7 256.9 213.0Q257.6 213.3 258.5 213.3L258.5 213.3Q259.1 213.3 259.8 213.2Q260.4 213.1 260.7 213.0L260.7 213.0L262.2 219.8Q261.5 220.0 260.2 220.3Q259.0 220.5 257.2 220.6L257.2 220.6Q254.0 220.7 251.5 219.7Q249.0 218.7 247.7 216.6Q246.3 214.5 246.3 211.3L246.3 211.3ZM274.5 201.2L274.5 201.2L274.5 220.2L265.5 220.2L265.5 187.4L274.1 187.4L274.1 193.2L274.5 193.2Q275.6 190.4 278.1 188.7Q280.7 187.0 284.3 187.0L284.3 187.0Q287.8 187.0 290.3 188.5Q292.8 190.0 294.2 192.7Q295.6 195.5 295.6 199.3L295.6 199.3L295.6 220.2L286.6 220.2L286.6 200.9Q286.6 197.9 285.0 196.2Q283.5 194.5 280.7 194.5L280.7 194.5Q278.9 194.5 277.5 195.3Q276.1 196.1 275.3 197.6Q274.6 199.1 274.5 201.2ZM321.8 206.2L321.8 206.2L321.8 187.4L330.8 187.4L330.8 220.2L322.1 220.2L322.1 214.2L321.8 214.2Q320.7 217.1 318.1 218.8Q315.5 220.6 311.9 220.6L311.9 220.6Q308.6 220.6 306.1 219.1Q303.6 217.6 302.2 214.9Q300.8 212.1 300.8 208.3L300.8 208.3L300.8 187.4L309.9 187.4L309.9 206.7Q309.9 209.5 311.4 211.2Q312.9 212.9 315.5 212.9L315.5 212.9Q317.2 212.9 318.6 212.2Q320.0 211.4 320.9 209.9Q321.8 208.4 321.8 206.2ZM345.2 220.2L336.1 220.2L336.1 187.4L344.7 187.4L344.7 193.2L345.1 193.2Q346.1 190.3 348.5 188.7Q350.9 187.0 354.2 187.0L354.2 187.0Q357.6 187.0 360.0 188.7Q362.3 190.4 363.1 193.2L363.1 193.2L363.5 193.2Q364.5 190.4 367.1 188.7Q369.7 187.0 373.3 187.0L373.3 187.0Q377.9 187.0 380.8 189.9Q383.6 192.8 383.6 198.2L383.6 198.2L383.6 220.2L374.6 220.2L374.6 199.9Q374.6 197.2 373.1 195.8Q371.7 194.5 369.5 194.5L369.5 194.5Q367.0 194.5 365.7 196.1Q364.3 197.6 364.3 200.2L364.3 200.2L364.3 220.2L355.5 220.2L355.5 199.7Q355.5 197.3 354.1 195.9Q352.7 194.5 350.5 194.5L350.5 194.5Q349.0 194.5 347.8 195.2Q346.6 196.0 345.9 197.4Q345.2 198.7 345.2 200.5L345.2 200.5L345.2 220.2ZM397.9 220.2L388.8 220.2L388.8 187.4L397.5 187.4L397.5 193.2L397.8 193.2Q398.9 190.3 401.2 188.7Q403.6 187.0 407.0 187.0L407.0 187.0Q410.3 187.0 412.7 188.7Q415.0 190.4 415.8 193.2L415.8 193.2L416.2 193.2Q417.2 190.4 419.8 188.7Q422.4 187.0 426.0 187.0L426.0 187.0Q430.6 187.0 433.5 189.9Q436.4 192.8 436.4 198.2L436.4 198.2L436.4 220.2L427.3 220.2L427.3 199.9Q427.3 197.2 425.9 195.8Q424.4 194.5 422.2 194.5L422.2 194.5Q419.8 194.5 418.4 196.1Q417.0 197.6 417.0 200.2L417.0 200.2L417.0 220.2L408.2 220.2L408.2 199.7Q408.2 197.3 406.8 195.9Q405.4 194.5 403.2 194.5L403.2 194.5Q401.7 194.5 400.5 195.2Q399.3 196.0 398.6 197.4Q397.9 198.7 397.9 200.5L397.9 200.5L397.9 220.2ZM456.4 220.8L456.4 220.8Q451.4 220.8 447.7 218.7Q444.1 216.7 442.2 212.9Q440.2 209.1 440.2 203.9L440.2 203.9Q440.2 198.9 442.2 195.1Q444.1 191.3 447.7 189.1Q451.3 187.0 456.1 187.0L456.1 187.0Q459.3 187.0 462.1 188.0Q464.9 189.1 467.0 191.1Q469.1 193.2 470.3 196.3Q471.5 199.5 471.5 203.6L471.5 203.6L471.5 206.1L443.8 206.1L443.8 200.5L462.9 200.5Q462.9 198.5 462.1 197.0Q461.2 195.5 459.7 194.6Q458.2 193.8 456.2 193.8L456.2 193.8Q454.2 193.8 452.6 194.7Q451.0 195.7 450.1 197.3Q449.2 198.9 449.2 200.8L449.2 200.8L449.2 206.1Q449.2 208.6 450.1 210.3Q451.0 212.1 452.6 213.1Q454.3 214.0 456.6 214.0L456.6 214.0Q458.1 214.0 459.3 213.6Q460.6 213.2 461.5 212.3Q462.4 211.5 462.9 210.2L462.9 210.2L471.3 210.8Q470.6 213.8 468.6 216.1Q466.7 218.3 463.6 219.6Q460.5 220.8 456.4 220.8ZM484.5 220.2L475.4 220.2L475.4 187.4L484.2 187.4L484.2 193.1L484.5 193.1Q485.4 190.1 487.5 188.5Q489.6 187.0 492.4 187.0L492.4 187.0Q493.1 187.0 493.8 187.0Q494.6 187.1 495.2 187.3L495.2 187.3L495.2 195.3Q494.6 195.1 493.5 195.0Q492.3 194.8 491.4 194.8L491.4 194.8Q489.4 194.8 487.8 195.7Q486.3 196.6 485.4 198.1Q484.5 199.6 484.5 201.6L484.5 201.6L484.5 220.2ZM525.1 196.8L525.1 196.8L516.8 197.3Q516.6 196.2 515.9 195.3Q515.2 194.5 514.1 194.0Q512.9 193.4 511.3 193.4L511.3 193.4Q509.2 193.4 507.8 194.3Q506.3 195.2 506.3 196.7L506.3 196.7Q506.3 197.9 507.3 198.7Q508.2 199.5 510.5 200.0L510.5 200.0L516.4 201.2Q521.2 202.1 523.5 204.3Q525.9 206.5 525.9 210.0L525.9 210.0Q525.9 213.2 524.0 215.7Q522.1 218.1 518.8 219.4Q515.6 220.8 511.3 220.8L511.3 220.8Q504.8 220.8 501.0 218.1Q497.1 215.4 496.5 210.7L496.5 210.7L505.4 210.2Q505.8 212.2 507.3 213.2Q508.9 214.3 511.3 214.3L511.3 214.3Q513.7 214.3 515.2 213.3Q516.6 212.4 516.6 210.9L516.6 210.9Q516.6 209.7 515.6 208.9Q514.6 208.1 512.5 207.7L512.5 207.7L506.8 206.5Q502.0 205.6 499.7 203.2Q497.3 200.9 497.3 197.2L497.3 197.2Q497.3 194.0 499.0 191.8Q500.8 189.5 503.9 188.2Q507.0 187.0 511.2 187.0L511.2 187.0Q517.4 187.0 521.0 189.6Q524.5 192.2 525.1 196.8ZM534.9 220.7L534.9 220.7Q532.8 220.7 531.3 219.2Q529.8 217.7 529.8 215.6L529.8 215.6Q529.8 213.5 531.3 212.0Q532.8 210.5 534.9 210.5L534.9 210.5Q537.0 210.5 538.5 212.0Q540.0 213.5 540.0 215.6L540.0 215.6Q540.0 217.0 539.3 218.2Q538.6 219.3 537.4 220.0Q536.3 220.7 534.9 220.7ZM557.5 220.7L557.5 220.7Q553.8 220.7 550.8 218.8Q547.8 216.8 546.0 213.1Q544.2 209.3 544.2 203.8L544.2 203.8Q544.2 198.2 546.1 194.5Q547.9 190.7 550.9 188.9Q553.9 187.0 557.5 187.0L557.5 187.0Q560.2 187.0 562.1 187.9Q563.9 188.9 565.1 190.2Q566.2 191.6 566.8 192.9L566.8 192.9L567.1 192.9L567.1 176.5L576.1 176.5L576.1 220.2L567.2 220.2L567.2 214.9L566.8 214.9Q566.2 216.3 565.0 217.6Q563.8 218.9 562.0 219.8Q560.2 220.7 557.5 220.7ZM560.4 213.5L560.4 213.5Q562.6 213.5 564.1 212.3Q565.6 211.1 566.5 208.9Q567.3 206.7 567.3 203.8L567.3 203.8Q567.3 200.9 566.5 198.7Q565.7 196.6 564.1 195.4Q562.6 194.2 560.4 194.2L560.4 194.2Q558.2 194.2 556.6 195.4Q555.1 196.7 554.3 198.8Q553.5 201.0 553.5 203.8L553.5 203.8Q553.5 206.7 554.3 208.8Q555.1 211.0 556.6 212.2Q558.2 213.5 560.4 213.5ZM596.5 220.8L596.5 220.8Q591.4 220.8 587.8 218.7Q584.2 216.7 582.2 212.9Q580.3 209.1 580.3 203.9L580.3 203.9Q580.3 198.9 582.2 195.1Q584.2 191.3 587.7 189.1Q591.3 187.0 596.1 187.0L596.1 187.0Q599.4 187.0 602.2 188.0Q605.0 189.1 607.1 191.1Q609.2 193.2 610.3 196.3Q611.5 199.5 611.5 203.6L611.5 203.6L611.5 206.1L583.9 206.1L583.9 200.5L603.0 200.5Q603.0 198.5 602.1 197.0Q601.3 195.5 599.8 194.6Q598.3 193.8 596.3 193.8L596.3 193.8Q594.2 193.8 592.6 194.7Q591.0 195.7 590.1 197.3Q589.3 198.9 589.2 200.8L589.2 200.8L589.2 206.1Q589.2 208.6 590.1 210.3Q591.0 212.1 592.7 213.1Q594.4 214.0 596.6 214.0L596.6 214.0Q598.2 214.0 599.4 213.6Q600.7 213.2 601.6 212.3Q602.5 211.5 602.9 210.2L602.9 210.2L611.3 210.8Q610.7 213.8 608.7 216.1Q606.7 218.3 603.6 219.6Q600.5 220.8 596.5 220.8ZM635.4 187.4L645.0 187.4L633.6 220.2L623.4 220.2L611.9 187.4L621.5 187.4L628.3 210.8L628.6 210.8L635.4 187.4Z "/></clipPath><defs><pattern id="satori_pattern_id-0_0" x="0" y="0" width="1" height="1" patternUnits="objectBoundingBox"><linearGradient id="satori_biid-0_0" x1="0" y1="0" x2="0" y2="1"><stop offset="0%" stop-color="#f4f4f5"/><stop offset="100%" stop-color="#d1d5db"/></linearGradient><rect x="0" y="0" width="492" height="72" fill="url(#satori_biid-0_0)"/></pattern></defs><mask id="satori_om-id-0"><rect x="154" y="164" width="492" height="72" fill="#fff"/></mask><rect x="154" y="164" width="492" height="72" fill="url(#satori_pattern_id-0_0)" clip-path="url(#satori_bct-id-0)"/></svg>